<svg id="Capa_1" enable-background="new 0 0 512 512" height="512" viewBox="0 0 512 512" width="512" xmlns="http://www.w3.org/2000/svg"><g><path d="m52.104 373.945c-8.423-2.589-17.097-6.117-26.052-10.726-21.771-11.207-30.335-37.941-19.128-59.713 11.206-21.771 37.932-30.341 59.713-19.128 24.642 12.682 38.252 10.057 87.043-32.598 18.434-16.118 46.442-14.24 62.56 4.196 16.117 18.434 14.239 46.444-4.195 62.561-36.011 31.484-88.505 77.369-159.941 55.408z" fill="#ffbe9d"/><path d="m459.896 373.945c8.423-2.589 17.097-6.117 26.052-10.726 21.771-11.207 30.335-37.942 19.127-59.713-11.206-21.771-37.932-30.341-59.713-19.128-24.642 12.682-38.252 10.057-87.043-32.598-18.434-16.118-46.442-14.24-62.56 4.196-16.117 18.434-14.239 46.444 4.195 62.561 36.012 31.484 88.506 77.369 159.942 55.408z" fill="#ffbe9d"/><path d="m256 467.651c63.798 0 139.057-10.624 131.381-80.189-8.318-75.381-61.279-173.674-131.381-173.674s-123.063 98.293-131.381 173.674c-7.676 69.565 67.583 80.189 131.381 80.189z" fill="#8de1ce"/><path d="m256 329.551c41.29 0 77.767-8.194 107.655-23.951-23.508-49.997-61.933-91.811-107.655-91.811s-84.146 41.814-107.655 91.811c29.888 15.757 66.365 23.951 107.655 23.951z" fill="#6fcd90"/><path d="m234.461 480.044c-6.844-23.511 6.666-48.118 30.178-54.962 48.407-14.092 73.687-29.294 109.366-52.517 20.532-13.34 47.993-7.506 61.334 13.027 13.339 20.533 7.506 47.994-13.027 61.334-42.445 27.626-74.587 46.323-132.889 63.294-23.496 6.843-48.115-6.653-54.962-30.176z" fill="#ffbe9d"/><path d="m374.005 372.565c-25.312 16.474-45.397 28.91-72.211 39.779 6.614 26.304 18.003 58.641 33.891 81.987 32.18-13.07 56.878-28.043 86.626-47.405 20.534-13.34 26.367-40.8 13.027-61.334-13.34-20.533-40.801-26.366-61.333-13.027z" fill="#7c93dd"/><path d="m222.577 510.221c-58.922-17.153-92.186-36.803-132.888-63.294-20.534-13.34-26.366-40.8-13.027-61.334 13.341-20.534 40.803-26.366 61.334-13.027 36.149 23.528 60.693 38.346 109.367 52.517 23.51 6.844 37.022 31.451 30.178 54.962-6.848 23.514-31.463 37.021-54.964 30.176z" fill="#ffd3bd"/><path d="m138.003 372.565c25.312 16.474 45.397 28.91 72.211 39.779-6.614 26.304-18.004 58.641-33.891 81.987-32.18-13.07-56.878-28.043-86.626-47.405-20.533-13.34-26.366-40.8-13.027-61.334 13.34-20.533 40.801-26.366 61.333-13.027z" fill="#7c93dd"/><ellipse cx="98.91" cy="149.13" fill="#ffd3bd" rx="46.449" ry="44.151"/><ellipse cx="413.089" cy="149.13" fill="#ffbe9d" rx="46.449" ry="44.151"/><ellipse cx="256" cy="159.532" fill="#ffd3bd" rx="161.856" ry="139.114"/><path d="m185.401 34.319c-54.017 22.541-91.257 70.137-91.257 125.213 0 76.83 52.306 139.114 161.856 139.114 13.553 0 26.226-.956 38.036-2.772-164.5-2.887-156.364-216.848-108.635-261.555z" fill="#ffbe9d"/><g><g><ellipse cx="170.425" cy="194.171" fill="#eda1ab" rx="31.575" ry="25.145"/><ellipse cx="341.575" cy="194.009" fill="#eda1ab" rx="31.576" ry="25.145"/><path d="m270.115 182.398c-.009-8.947-6.34-16.194-14.141-16.187s-14.119 7.266-14.111 16.213 6.34 16.194 14.141 16.187c7.802-.007 14.119-7.266 14.111-16.213z" fill="#4b5165"/></g><g fill="#4b5165"><path d="m188.787 175.039c-6.372 0-12.433-2.756-16.632-7.564-2.725-3.12-2.404-7.858.716-10.583s7.859-2.403 10.582.716c1.349 1.545 3.293 2.431 5.334 2.431h.007c2.044-.002 3.99-.892 5.337-2.441 2.719-3.125 7.457-3.454 10.581-.736 3.125 2.719 3.455 7.456.736 10.581-4.194 4.822-10.26 7.59-16.641 7.596-.005 0-.013 0-.02 0z"/><path d="m323.136 174.913c-6.376 0-12.438-2.756-16.636-7.565-2.725-3.121-2.403-7.858.717-10.583 3.121-2.724 7.859-2.402 10.582.717 1.349 1.545 3.294 2.431 5.336 2.431h.006c2.044-.002 3.989-.892 5.336-2.44 2.72-3.126 7.458-3.454 10.581-.737 3.125 2.718 3.455 7.455.737 10.581-4.193 4.821-10.259 7.59-16.64 7.597-.007-.001-.013-.001-.019-.001z"/></g></g><path d="m257.719 4.754c108.355-24.224 170.995 49.276 178.054 103.908 1.273 9.854-6.401 18.58-16.334 18.382-55.628-1.107-129.618-28.14-157.173-47.593-3.747-2.646-8.785-2.646-12.532 0-27.555 19.453-101.545 46.486-157.172 47.593-9.934.198-17.608-8.529-16.335-18.382 7.058-54.631 69.699-128.131 178.053-103.908 1.13.253 2.309.253 3.439 0z" fill="#4b5165"/></g></svg>