<?xml version="1.0" encoding="utf-8"?>
<svg viewBox="0 0 500 500" xmlns="http://www.w3.org/2000/svg" xmlns:bx="https://boxy-svg.com">
  <g style="" transform="matrix(1.963541, 0, 0, 2.07093, -200.429855, -472.99176)">
    <path d="M 256.92 304.985 C 257.114 307.235 236.925 310.668 227.314 308.157 C 221.132 306.543 218.311 290.922 218.907 290.313 C 219.163 290.051 227.526 291.116 230.257 291.116 C 234.59 291.116 248.33 288.518 252.015 290.843 C 253.017 291.474 254.414 295.321 256.41 298.543 C 257.945 301.02 268.607 283.609 264.908 292.08" style="fill: rgb(39, 83, 25);" transform="matrix(-1, 0, 0, -1, 484.511887, 598.774139)"/>
    <path d="M 263.878 413.662 C 263.086 415.673 238.959 418.741 229.333 416.497 C 223.14 415.054 226.992 401.097 227.928 400.547 C 228.417 400.26 248.997 395.002 250.545 395.945 C 254.685 398.465 261.651 398.943 264.731 401.021 C 265.569 401.585 265.407 405.024 266.196 407.904 C 266.802 410.118 286.538 394.555 278.601 402.127" style="fill: rgb(39, 83, 25);" transform="matrix(-0.893834, 0.448399, -0.448399, -0.893834, 661.785719, 656.426021)"/>
    <path d="M 235.878 384.395 C 236.072 386.645 215.883 390.078 206.272 387.567 C 200.09 385.953 197.269 370.332 197.865 369.723 C 198.121 369.461 206.484 370.526 209.215 370.526 C 213.548 370.526 227.288 367.928 230.973 370.253 C 231.975 370.884 233.372 374.731 235.368 377.953 C 236.903 380.43 247.565 363.019 243.866 371.49" style="fill: rgb(39, 83, 25);" transform="matrix(-1, 0, 0, -1, 442.427902, 757.594116)"/>
    <g>
      <path d="M 230.021 455.018 C 230.021 418.576 233.637 379.949 229.115 343.899 C 226.86 325.924 225.867 309.618 208.545 299.848 C 191.417 290.188 163.862 293.881 161.996 301.319" style="fill: none; stroke-linecap: round; stroke: rgb(63, 133, 41); stroke-width: 9px;"/>
      <path d="M 208.323 455.385 C 208.323 418.943 200.822 389.619 196.3 353.569 C 194.045 335.594 194.972 351.125 177.65 341.355 C 160.522 331.695 161.088 374.55 159.222 381.988" style="fill: none; stroke-linecap: round; stroke: rgb(63, 133, 41); stroke-width: 9px;"/>
      <path d="M 299.322 339.752 C 299.516 342.002 279.327 345.435 269.716 342.924 C 263.534 341.31 260.713 325.689 261.309 325.08 C 261.565 324.818 269.928 325.883 272.659 325.883 C 276.992 325.883 290.732 323.285 294.417 325.61 C 295.419 326.241 296.816 330.088 298.812 333.31 C 300.347 335.787 311.009 318.376 307.31 326.847" style="fill: rgb(39, 83, 25);" transform="matrix(-1, 0, 0, -1, 569.315887, 668.308136)"/>
      <path d="M 271.933 333.981 C 272.127 336.231 251.938 339.664 242.327 337.153 C 236.145 335.539 233.324 319.918 233.92 319.309 C 234.176 319.047 242.539 320.112 245.27 320.112 C 249.603 320.112 263.343 317.514 267.028 319.839 C 268.03 320.47 269.427 324.317 271.423 327.539 C 272.958 330.016 283.62 312.605 279.921 321.076" style="fill: rgb(39, 83, 25);" transform="matrix(-0.864316, 0.50295, -0.50295, -0.864316, 644.790687, 482.81639)"/>
      <path d="M 280.945 342.193 C 280.945 378.635 273.444 407.959 268.922 444.009 C 266.667 461.984 267.594 446.453 250.272 456.223 C 233.144 465.883 243.797 471.557 241.931 464.119" style="fill: none; stroke-linecap: round; stroke: rgb(63, 133, 41); stroke-width: 9px;" transform="matrix(-1, 0, 0, -1, 512.789001, 799.826477)"/>
    </g>
    <path style="fill: rgb(157, 90, 32); stroke: rgb(157, 90, 32);" d="M 121.098 423.518 L 148.101 461.697 C 169.131 473.279 193.793 445.038 197.515 440.422 C 207.856 427.596 271.676 455.401 285.122 451.834 C 297.933 448.435 314.952 439.213 328.643 426.922 C 336.123 420.207 248.672 434.979 121.098 423.518 Z" transform="matrix(-1, 0, 0, -1, 450.186447, 887.981293)"/>
    <path style="fill: rgb(92, 53, 19); stroke: rgb(92, 53, 19);" d="M 140.782 438.393 L 171.528 453.411 C 192.558 463.557 198.899 453.25 202.622 449.207 C 212.971 437.969 253.163 481.117 292.849 454.634 C 299.703 450.06 296.236 467.29 307.943 467.582 C 312.969 467.711 313.709 466.848 321.213 460.207 C 331.346 451.236 332.304 447.307 348.327 441.375 C 366.424 434.671 281.551 447.412 140.782 438.393 Z" transform="matrix(-1, 0, 0, -1, 491.527359, 905.986511)"/>
    <path d="M 166.117 278.055 C 166.311 275.805 146.122 272.372 136.511 274.883 C 130.329 276.497 127.508 292.118 128.104 292.727 C 128.36 292.989 136.723 291.924 139.454 291.924 C 143.787 291.924 157.527 294.522 161.212 292.197 C 162.214 291.566 163.611 287.719 165.607 284.497 C 167.142 282.02 177.804 299.431 174.105 290.96" style="fill: rgb(39, 83, 25);"/>
    <path d="M 156.009 281.247 C 156.259 278.31 130.141 273.828 117.707 277.105 C 109.71 279.213 106.06 299.608 106.831 300.403 C 107.162 300.745 117.982 299.355 121.515 299.355 C 127.12 299.355 144.895 302.747 149.663 299.711 C 150.959 298.886 152.766 293.865 155.349 289.657 C 157.334 286.424 171.128 309.155 166.342 298.095" style="fill: rgb(63, 133, 41);"/>
    <path d="M 235.195 339.965 C 235.445 342.902 209.327 347.384 196.893 344.107 C 188.896 341.999 185.246 321.604 186.017 320.809 C 186.348 320.467 197.168 321.857 200.701 321.857 C 206.306 321.857 224.081 318.465 228.849 321.501 C 230.145 322.326 231.952 327.347 234.535 331.555 C 236.52 334.788 250.314 312.057 245.528 323.117" style="fill: rgb(63, 133, 41);" transform="matrix(-0.976084, 0.217392, -0.217392, -0.976084, 499.592581, 610.352155)"/>
    <path d="M 179.784 294.866 C 180.034 291.929 153.916 287.447 141.482 290.724 C 133.485 292.832 129.835 313.227 130.606 314.022 C 130.937 314.364 141.757 312.974 145.29 312.974 C 150.895 312.974 168.67 316.366 173.438 313.33 C 174.734 312.505 176.541 307.484 179.124 303.276 C 181.109 300.043 194.903 322.774 190.117 311.714" style="fill: rgb(63, 133, 41);" transform="matrix(0.86406, -0.503389, 0.503389, 0.86406, -130.250417, 122.028787)"/>
    <path d="M 172.75 331.34 C 172.944 329.09 152.755 325.657 143.144 328.168 C 136.962 329.782 134.141 345.403 134.737 346.012 C 134.993 346.274 143.356 345.209 146.087 345.209 C 150.42 345.209 164.16 347.807 167.845 345.482 C 168.847 344.851 170.244 341.004 172.24 337.782 C 173.775 335.305 184.437 352.716 180.738 344.245" style="fill: rgb(39, 83, 25);"/>
    <path d="M 262.747 294.277 C 262.997 297.214 236.879 301.696 224.445 298.419 C 216.448 296.311 212.798 275.916 213.569 275.121 C 213.9 274.779 224.72 276.169 228.253 276.169 C 233.858 276.169 251.633 272.777 256.401 275.813 C 257.697 276.638 259.504 281.659 262.087 285.867 C 264.072 289.1 277.866 266.369 273.08 277.429" style="fill: rgb(63, 133, 41);" transform="matrix(-0.976084, 0.217392, -0.217392, -0.976084, 544.105434, 514.07922)"/>
    <path d="M 293.952 333.109 C 294.202 336.046 268.084 340.528 255.65 337.251 C 247.653 335.143 244.003 314.748 244.774 313.953 C 245.105 313.611 255.925 315.001 259.458 315.001 C 265.063 315.001 282.838 311.609 287.606 314.645 C 288.902 315.47 290.709 320.491 293.292 324.699 C 295.277 327.932 309.071 305.201 304.285 316.261" style="fill: rgb(63, 133, 41);" transform="matrix(-0.958292, 0.285792, -0.285792, -0.958292, 631.602988, 559.425359)"/>
    <g transform="matrix(0.978804, 0.2048, -0.2048, 0.978804, 246.837936, 120.735016)">
      <g style="" transform="matrix(-0.92272, 0.193065, 0.192112, 0.918162, 93.032822, 28.566879)">
        <path d="M 91.628 191.233 C 89.718 190.053 88.799 188.55 88.412 186.628 C 88.313 186.139 88.045 185.036 88.734 184.747 C 88.809 184.715 88.894 185.451 88.934 185.541 C 89.166 186.069 89.503 186.576 89.749 187.101 C 90.358 188.399 92.293 189.335 93.423 190.273 C 93.593 190.414 94.56 191.11 94.885 190.863 C 95.034 190.75 95.097 189.586 95.206 189.379 C 95.997 187.873 97.065 186.214 98.281 184.918 C 98.358 184.836 99.252 183.511 99.464 183.629 C 100.108 183.987 98.869 184.824 98.68 185.449 C 98.188 187.076 98.022 188.794 97.713 190.443 C 97.668 190.684 97.206 192.083 97.375 192.256 C 97.552 192.437 99.325 192.256 99.554 192.256 C 101.452 192.256 104.669 192.158 106.341 191.275 C 106.798 191.033 108.088 188.568 108.174 188.616 C 108.517 188.803 107.894 190.099 107.837 190.316 C 107.493 191.611 104.973 194.739 103.249 194.739 C 102.899 194.739 103.952 194.821 104.265 194.951 C 104.528 195.06 107.533 196.192 107.347 196.333 C 106.747 196.787 104.855 196.501 104.076 196.501 C 103.706 196.501 102.505 196.187 102.793 196.187" style="stroke: rgb(0, 0, 0); fill: rgb(63, 133, 41);"/>
        <path d="M 94.258 192.2 C 90.786 191.786 87.238 189.277 83.165 191.366 C 75.841 195.122 76.834 204.808 76.834 204.808 C 76.834 204.808 81.642 212.95 82.511 213.493 C 82.872 213.719 85.39 215.61 88.192 215.399 C 92.243 215.094 94.84 213.995 97.43 212.993 C 98.337 212.642 102.738 210.737 104.052 207.737 C 105.781 203.79 104.321 198.445 104.003 197.224 C 103.324 194.619 99.92 192.199 94.12 192.199" style="stroke: rgb(0, 0, 0); fill: rgb(216, 33, 49);"/>
        <path style="fill: rgb(255, 250, 162);" transform="matrix(0.726271, 0.226134, -0.241712, 0.535262, -63.333229, 67.582466)" d="M 242.984 131.386 A 5.414 5.414 0 0 1 242.984 137.52 A 3.758 3.758 0 0 1 242.984 131.386 Z" bx:shape="crescent 238.522 134.453 5.414 69 0.766 1@7d662fba"/>
        <path style="fill: rgb(255, 250, 162);" transform="matrix(0.726271, 0.226134, -0.241712, 0.535262, -58.830528, 76.551292)" d="M 242.984 131.386 A 5.414 5.414 0 0 1 242.984 137.52 A 3.758 3.758 0 0 1 242.984 131.386 Z" bx:shape="crescent 238.522 134.453 5.414 69 0.766 1@7d662fba"/>
        <path style="fill: rgb(255, 250, 162);" transform="matrix(0.726271, 0.226134, -0.241712, 0.535262, -51.481621, 67.41993)" d="M 242.984 131.386 A 5.414 5.414 0 0 1 242.984 137.52 A 3.758 3.758 0 0 1 242.984 131.386 Z" bx:shape="crescent 238.522 134.453 5.414 69 0.766 1@7d662fba"/>
        <path style="fill: rgb(255, 250, 162);" transform="matrix(0.726271, 0.226134, -0.241712, 0.535262, -49.799391, 79.713062)" d="M 242.984 131.386 A 5.414 5.414 0 0 1 242.984 137.52 A 3.758 3.758 0 0 1 242.984 131.386 Z" bx:shape="crescent 238.522 134.453 5.414 69 0.766 1@7d662fba"/>
        <path style="fill: rgb(255, 250, 162);" transform="matrix(0.726271, 0.226134, -0.241712, 0.535262, -57.841613, 83.256953)" d="M 242.984 131.386 A 5.414 5.414 0 0 1 242.984 137.52 A 3.758 3.758 0 0 1 242.984 131.386 Z" bx:shape="crescent 238.522 134.453 5.414 69 0.766 1@7d662fba"/>
      </g>
      <g style="" transform="matrix(0.92272, -0.193065, 0.192111, 0.918162, -96.166252, 56.65543)">
        <path d="M 91.628 191.233 C 89.718 190.053 88.799 188.55 88.412 186.628 C 88.313 186.139 88.045 185.036 88.734 184.747 C 88.809 184.715 88.894 185.451 88.934 185.541 C 89.166 186.069 89.503 186.576 89.749 187.101 C 90.358 188.399 92.293 189.335 93.423 190.273 C 93.593 190.414 94.56 191.11 94.885 190.863 C 95.034 190.75 95.097 189.586 95.206 189.379 C 95.997 187.873 97.065 186.214 98.281 184.918 C 98.358 184.836 99.252 183.511 99.464 183.629 C 100.108 183.987 98.869 184.824 98.68 185.449 C 98.188 187.076 98.022 188.794 97.713 190.443 C 97.668 190.684 97.206 192.083 97.375 192.256 C 97.552 192.437 99.325 192.256 99.554 192.256 C 101.452 192.256 104.669 192.158 106.341 191.275 C 106.798 191.033 108.088 188.568 108.174 188.616 C 108.517 188.803 107.894 190.099 107.837 190.316 C 107.493 191.611 104.973 194.739 103.249 194.739 C 102.899 194.739 103.952 194.821 104.265 194.951 C 104.528 195.06 107.533 196.192 107.347 196.333 C 106.747 196.787 104.855 196.501 104.076 196.501 C 103.706 196.501 102.505 196.187 102.793 196.187" style="stroke: rgb(0, 0, 0); fill: rgb(63, 133, 41);"/>
        <path d="M 94.258 192.2 C 90.786 191.786 87.238 189.277 83.165 191.366 C 75.841 195.122 76.834 204.808 76.834 204.808 C 76.834 204.808 81.642 212.95 82.511 213.493 C 82.872 213.719 85.39 215.61 88.192 215.399 C 92.243 215.094 94.84 213.995 97.43 212.993 C 98.337 212.642 102.738 210.737 104.052 207.737 C 105.781 203.79 104.321 198.445 104.003 197.224 C 103.324 194.619 99.92 192.199 94.12 192.199" style="stroke: rgb(0, 0, 0); fill: rgb(216, 33, 49);"/>
        <path style="fill: rgb(255, 250, 162);" transform="matrix(0.726271, 0.226134, -0.241712, 0.535262, -63.333229, 67.582466)" d="M 242.984 131.386 A 5.414 5.414 0 0 1 242.984 137.52 A 3.758 3.758 0 0 1 242.984 131.386 Z" bx:shape="crescent 238.522 134.453 5.414 69 0.766 1@7d662fba"/>
        <path style="fill: rgb(255, 250, 162);" transform="matrix(0.726271, 0.226134, -0.241712, 0.535262, -58.830528, 76.551292)" d="M 242.984 131.386 A 5.414 5.414 0 0 1 242.984 137.52 A 3.758 3.758 0 0 1 242.984 131.386 Z" bx:shape="crescent 238.522 134.453 5.414 69 0.766 1@7d662fba"/>
        <path style="fill: rgb(255, 250, 162);" transform="matrix(0.726271, 0.226134, -0.241712, 0.535262, -51.481621, 67.41993)" d="M 242.984 131.386 A 5.414 5.414 0 0 1 242.984 137.52 A 3.758 3.758 0 0 1 242.984 131.386 Z" bx:shape="crescent 238.522 134.453 5.414 69 0.766 1@7d662fba"/>
        <path style="fill: rgb(255, 250, 162);" transform="matrix(0.726271, 0.226134, -0.241712, 0.535262, -49.799391, 79.713062)" d="M 242.984 131.386 A 5.414 5.414 0 0 1 242.984 137.52 A 3.758 3.758 0 0 1 242.984 131.386 Z" bx:shape="crescent 238.522 134.453 5.414 69 0.766 1@7d662fba"/>
        <path style="fill: rgb(255, 250, 162);" transform="matrix(0.726271, 0.226134, -0.241712, 0.535262, -57.841613, 83.256953)" d="M 242.984 131.386 A 5.414 5.414 0 0 1 242.984 137.52 A 3.758 3.758 0 0 1 242.984 131.386 Z" bx:shape="crescent 238.522 134.453 5.414 69 0.766 1@7d662fba"/>
        <path d="M 33.2489688410999 236.9225111933004 C 33.24896301859642 233.6385981655999 33.570328773708326 230.15597640178106 33.24896240234375 226.88864135742188 C 33.092160644964245 225.29443635480212 31.442234856296693 223.76354868736038 30.845203399658203 222.2978515625 C 29.60918270474962 219.26345202014488 28.794801712036133 214.2521704891089 28.794801712036133 211.0113067626953" style="fill: none; stroke-linecap: round; stroke-width: 3.19022px; stroke: rgb(39, 83, 25);"/>
        <path d="M 21.741 212.725 C 21.741 215.863 22.019 219.191 21.741 222.313 C 21.606 223.837 20.183 225.3 19.668 226.701 C 18.602 229.6 17.899 234.39 17.899 237.486" style="fill: none; stroke-linecap: round; stroke-width: 3.19022px; stroke: rgb(39, 83, 25);" transform="matrix(-0.989352, -0.146266, 0.144825, -0.989352, 6.951052, 450.722059)"/>
        <path d="M 153.786 209.3 C 153.786 206.016 154.487 202.473 153.786 199.266 C 153.63 198.554 150.821 191.713 151.075 192.401" style="fill: none; stroke-linecap: round; stroke-width: 3.19022px; stroke: rgb(39, 83, 25);"/>
      </g>
      <g style="" transform="matrix(-0.942702, 0, 0, 0.938045, 178.380005, 37.410057)">
        <path style="fill: rgb(255, 250, 162);" transform="matrix(0.726271, 0.226134, -0.241712, 0.535262, -63.333229, 67.582466)" d="M 242.984 131.386 A 5.414 5.414 0 0 1 242.984 137.52 A 3.758 3.758 0 0 1 242.984 131.386 Z" bx:shape="crescent 238.522 134.453 5.414 69 0.766 1@7d662fba"/>
        <path d="M 94.258 192.2 C 90.786 191.786 82.498 188.506 79.273 191.754 C 74.316 196.745 75.39 198.802 75.39 205.329 C 75.39 206.494 74.507 222.575 75.376 223.118 C 76.26 223.67 85.178 226.175 85.939 226.807 C 87.671 228.245 94.975 221.58 102.475 214.647 C 108.273 209.289 108.109 201.541 107.096 200.699 C 103.343 197.583 99.92 192.199 94.12 192.199" style="stroke: rgb(0, 0, 0); fill: rgb(216, 33, 49);"/>
        <path style="fill: rgb(255, 250, 162);" transform="matrix(0.726271, 0.226134, -0.241712, 0.535262, -58.830528, 76.551292)" d="M 242.984 131.386 A 5.414 5.414 0 0 1 242.984 137.52 A 3.758 3.758 0 0 1 242.984 131.386 Z" bx:shape="crescent 238.522 134.453 5.414 69 0.766 1@7d662fba"/>
        <path style="fill: rgb(255, 250, 162);" transform="matrix(0.726271, 0.226134, -0.241712, 0.535262, -49.642326, 73.17627)" d="M 242.984 131.386 A 5.414 5.414 0 0 1 242.984 137.52 A 3.758 3.758 0 0 1 242.984 131.386 Z" bx:shape="crescent 238.522 134.453 5.414 69 0.766 1@7d662fba"/>
        <path style="fill: rgb(255, 250, 162);" transform="matrix(0.726271, 0.226134, -0.241712, 0.535262, -50.038021, 87.02919)" d="M 242.984 131.386 A 5.414 5.414 0 0 1 242.984 137.52 A 3.758 3.758 0 0 1 242.984 131.386 Z" bx:shape="crescent 238.522 134.453 5.414 69 0.766 1@7d662fba"/>
        <path style="fill: rgb(255, 250, 162);" transform="matrix(0.726271, 0.226134, -0.241712, 0.535262, -61.06749, 91.041512)" d="M 242.984 131.386 A 5.414 5.414 0 0 1 242.984 137.52 A 3.758 3.758 0 0 1 242.984 131.386 Z" bx:shape="crescent 238.522 134.453 5.414 69 0.766 1@7d662fba"/>
        <path style="fill: rgb(255, 250, 162);" transform="matrix(0.726271, 0.226134, -0.241712, 0.535262, -65.564438, 81.774254)" d="M 242.984 131.386 A 5.414 5.414 0 0 1 242.984 137.52 A 3.758 3.758 0 0 1 242.984 131.386 Z" bx:shape="crescent 238.522 134.453 5.414 69 0.766 1@7d662fba"/>
        <path style="fill: rgb(255, 250, 162);" transform="matrix(0.726271, 0.226134, -0.241712, 0.535262, -41.064941, 80.731941)" d="M 242.984 131.386 A 5.414 5.414 0 0 1 242.984 137.52 A 3.758 3.758 0 0 1 242.984 131.386 Z" bx:shape="crescent 238.522 134.453 5.414 69 0.766 1@7d662fba"/>
        <path style="fill: rgb(255, 250, 162);" transform="matrix(0.726271, 0.226134, -0.241712, 0.535262, -51.481621, 67.41993)" d="M 242.984 131.386 A 5.414 5.414 0 0 1 242.984 137.52 A 3.758 3.758 0 0 1 242.984 131.386 Z" bx:shape="crescent 238.522 134.453 5.414 69 0.766 1@7d662fba"/>
        <path d="M 91.628 191.233 C 89.718 190.053 88.799 188.55 88.412 186.628 C 88.313 186.139 88.045 185.036 88.734 184.747 C 88.809 184.715 88.894 185.451 88.934 185.541 C 89.166 186.069 89.503 186.576 89.749 187.101 C 90.358 188.399 92.293 189.335 93.423 190.273 C 93.593 190.414 94.56 191.11 94.885 190.863 C 95.034 190.75 95.097 189.586 95.206 189.379 C 95.997 187.873 97.065 186.214 98.281 184.918 C 98.358 184.836 99.252 183.511 99.464 183.629 C 100.108 183.987 98.869 184.824 98.68 185.449 C 98.188 187.076 98.022 188.794 97.713 190.443 C 97.668 190.684 97.206 192.083 97.375 192.256 C 97.552 192.437 99.325 192.256 99.554 192.256 C 101.452 192.256 104.669 192.158 106.341 191.275 C 106.798 191.033 108.088 188.568 108.174 188.616 C 108.517 188.803 107.894 190.099 107.837 190.316 C 107.493 191.611 104.973 194.739 103.249 194.739 C 102.899 194.739 103.952 194.821 104.265 194.951 C 104.528 195.06 107.533 196.192 107.347 196.333 C 106.747 196.787 104.855 196.501 104.076 196.501 C 103.706 196.501 102.505 196.187 102.793 196.187" style="stroke: rgb(0, 0, 0); fill: rgb(63, 133, 41);"/>
      </g>
    </g>
    <path d="M 215.556 379.305 C 214.453 376.392 186.054 371.945 175.034 375.196 C 167.946 377.288 173.684 397.52 174.829 398.309 C 175.32 398.648 185.585 397.269 189.147 397.269 C 194.797 397.269 214.28 400.634 217.685 397.622 C 218.61 396.804 218.113 391.823 218.773 387.648 C 219.282 384.441 243.683 406.991 233.751 396.019" style="fill: rgb(63, 133, 41);" transform="matrix(0.992587, 0.121536, -0.121536, 0.992587, 48.142029, -21.078784)" bx:origin="0.392 0.402"/>
    <g transform="matrix(0.632611, -0.473345, 0.422145, 0.57786, 29.158607, 314.059601)" style="" bx:origin="1.81 2.708">
      <path d="M 91.628 191.233 C 89.718 190.053 88.799 188.55 88.412 186.628 C 88.313 186.139 88.045 185.036 88.734 184.747 C 88.809 184.715 88.894 185.451 88.934 185.541 C 89.166 186.069 89.503 186.576 89.749 187.101 C 90.358 188.399 92.293 189.335 93.423 190.273 C 93.593 190.414 94.56 191.11 94.885 190.863 C 95.034 190.75 95.097 189.586 95.206 189.379 C 95.997 187.873 97.065 186.214 98.281 184.918 C 98.358 184.836 99.252 183.511 99.464 183.629 C 100.108 183.987 98.869 184.824 98.68 185.449 C 98.188 187.076 98.022 188.794 97.713 190.443 C 97.668 190.684 97.206 192.083 97.375 192.256 C 97.552 192.437 99.325 192.256 99.554 192.256 C 101.452 192.256 104.669 192.158 106.341 191.275 C 106.798 191.033 108.088 188.568 108.174 188.616 C 108.517 188.803 107.894 190.099 107.837 190.316 C 107.493 191.611 104.973 194.739 103.249 194.739 C 102.899 194.739 103.952 194.821 104.265 194.951 C 104.528 195.06 107.533 196.192 107.347 196.333 C 106.747 196.787 104.855 196.501 104.076 196.501 C 103.706 196.501 102.505 196.187 102.793 196.187" style="stroke: rgb(0, 0, 0); fill: rgb(63, 133, 41);"/>
      <path d="M 94.258 192.2 C 90.786 191.786 82.498 188.506 79.273 191.754 C 74.316 196.745 76.141 208.885 76.141 215.412 C 76.141 216.577 74.507 222.575 75.376 223.118 C 76.26 223.67 78.234 224.175 78.995 224.807 C 80.727 226.245 94.975 221.58 102.475 214.647 C 108.273 209.289 108.109 201.541 107.096 200.699 C 103.343 197.583 99.92 192.199 94.12 192.199" style="stroke: rgb(0, 0, 0); fill: rgb(216, 33, 49);"/>
      <path style="fill: rgb(255, 250, 162);" transform="matrix(0.726271, 0.226134, -0.241712, 0.535262, -63.333229, 67.582466)" d="M 242.984 131.386 A 5.414 5.414 0 0 1 242.984 137.52 A 3.758 3.758 0 0 1 242.984 131.386 Z" bx:shape="crescent 238.522 134.453 5.414 69 0.766 1@7d662fba"/>
      <path style="fill: rgb(255, 250, 162);" transform="matrix(0.726271, 0.226134, -0.241712, 0.535262, -58.830528, 76.551292)" d="M 242.984 131.386 A 5.414 5.414 0 0 1 242.984 137.52 A 3.758 3.758 0 0 1 242.984 131.386 Z" bx:shape="crescent 238.522 134.453 5.414 69 0.766 1@7d662fba"/>
      <path style="fill: rgb(255, 250, 162);" transform="matrix(0.726271, 0.226134, -0.241712, 0.535262, -49.642326, 73.17627)" d="M 242.984 131.386 A 5.414 5.414 0 0 1 242.984 137.52 A 3.758 3.758 0 0 1 242.984 131.386 Z" bx:shape="crescent 238.522 134.453 5.414 69 0.766 1@7d662fba"/>
      <path style="fill: rgb(255, 250, 162);" transform="matrix(0.726271, 0.226134, -0.241712, 0.535262, -50.038021, 87.02919)" d="M 242.984 131.386 A 5.414 5.414 0 0 1 242.984 137.52 A 3.758 3.758 0 0 1 242.984 131.386 Z" bx:shape="crescent 238.522 134.453 5.414 69 0.766 1@7d662fba"/>
      <path style="fill: rgb(255, 250, 162);" transform="matrix(0.726271, 0.226134, -0.241712, 0.535262, -61.06749, 91.041512)" d="M 242.984 131.386 A 5.414 5.414 0 0 1 242.984 137.52 A 3.758 3.758 0 0 1 242.984 131.386 Z" bx:shape="crescent 238.522 134.453 5.414 69 0.766 1@7d662fba"/>
      <path style="fill: rgb(255, 250, 162);" transform="matrix(0.726271, 0.226134, -0.241712, 0.535262, -65.564438, 81.774254)" d="M 242.984 131.386 A 5.414 5.414 0 0 1 242.984 137.52 A 3.758 3.758 0 0 1 242.984 131.386 Z" bx:shape="crescent 238.522 134.453 5.414 69 0.766 1@7d662fba"/>
      <path style="fill: rgb(255, 250, 162);" transform="matrix(0.726271, 0.226134, -0.241712, 0.535262, -41.064941, 80.731941)" d="M 242.984 131.386 A 5.414 5.414 0 0 1 242.984 137.52 A 3.758 3.758 0 0 1 242.984 131.386 Z" bx:shape="crescent 238.522 134.453 5.414 69 0.766 1@7d662fba"/>
      <path style="fill: rgb(255, 250, 162);" transform="matrix(0.726271, 0.226134, -0.241712, 0.535262, -51.481621, 67.41993)" d="M 242.984 131.386 A 5.414 5.414 0 0 1 242.984 137.52 A 3.758 3.758 0 0 1 242.984 131.386 Z" bx:shape="crescent 238.522 134.453 5.414 69 0.766 1@7d662fba"/>
    </g>
    <path d="M 183.873 343.458 C 184.098 340.392 160.526 335.712 149.303 339.134 C 142.085 341.334 138.791 362.627 139.487 363.457 C 139.786 363.814 149.551 362.363 152.74 362.363 C 157.799 362.363 173.842 365.905 178.146 362.734 C 179.315 361.873 180.946 356.632 183.277 352.238 C 185.069 348.863 197.519 372.594 193.2 361.048" style="fill: rgb(63, 133, 41);" transform="matrix(0.86406, -0.503389, 0.503389, 0.86406, -154.065843, 131.667204)"/>
    <g transform="matrix(-0.461141, -0.317632, -0.324387, 0.444043, 265.114441, 321.382996)" style="" bx:origin="1.81 2.708">
      <path d="M 91.628 191.233 C 89.718 190.053 88.799 188.55 88.412 186.628 C 88.313 186.139 88.045 185.036 88.734 184.747 C 88.809 184.715 88.894 185.451 88.934 185.541 C 89.166 186.069 89.503 186.576 89.749 187.101 C 90.358 188.399 92.293 189.335 93.423 190.273 C 93.593 190.414 94.56 191.11 94.885 190.863 C 95.034 190.75 95.097 189.586 95.206 189.379 C 95.997 187.873 97.065 186.214 98.281 184.918 C 98.358 184.836 99.252 183.511 99.464 183.629 C 100.108 183.987 98.869 184.824 98.68 185.449 C 98.188 187.076 98.022 188.794 97.713 190.443 C 97.668 190.684 97.206 192.083 97.375 192.256 C 97.552 192.437 99.325 192.256 99.554 192.256 C 101.452 192.256 104.669 192.158 106.341 191.275 C 106.798 191.033 108.088 188.568 108.174 188.616 C 108.517 188.803 107.894 190.099 107.837 190.316 C 107.493 191.611 104.973 194.739 103.249 194.739 C 102.899 194.739 103.952 194.821 104.265 194.951 C 104.528 195.06 107.533 196.192 107.347 196.333 C 106.747 196.787 104.855 196.501 104.076 196.501 C 103.706 196.501 102.505 196.187 102.793 196.187" style="stroke: rgb(0, 0, 0); fill: rgb(63, 133, 41);"/>
      <path d="M 94.258 192.2 C 90.786 191.786 82.498 188.506 79.273 191.754 C 74.316 196.745 76.141 208.885 76.141 215.412 C 76.141 216.577 74.507 222.575 75.376 223.118 C 76.26 223.67 78.234 224.175 78.995 224.807 C 80.727 226.245 94.975 221.58 102.475 214.647 C 108.273 209.289 108.109 201.541 107.096 200.699 C 103.343 197.583 99.92 192.199 94.12 192.199" style="stroke: rgb(0, 0, 0); fill: rgb(216, 33, 49);"/>
      <path style="fill: rgb(255, 250, 162);" transform="matrix(0.726271, 0.226134, -0.241712, 0.535262, -63.333229, 67.582466)" d="M 242.984 131.386 A 5.414 5.414 0 0 1 242.984 137.52 A 3.758 3.758 0 0 1 242.984 131.386 Z" bx:shape="crescent 238.522 134.453 5.414 69 0.766 1@7d662fba"/>
      <path style="fill: rgb(255, 250, 162);" transform="matrix(0.726271, 0.226134, -0.241712, 0.535262, -58.830528, 76.551292)" d="M 242.984 131.386 A 5.414 5.414 0 0 1 242.984 137.52 A 3.758 3.758 0 0 1 242.984 131.386 Z" bx:shape="crescent 238.522 134.453 5.414 69 0.766 1@7d662fba"/>
      <path style="fill: rgb(255, 250, 162);" transform="matrix(0.726271, 0.226134, -0.241712, 0.535262, -49.642326, 73.17627)" d="M 242.984 131.386 A 5.414 5.414 0 0 1 242.984 137.52 A 3.758 3.758 0 0 1 242.984 131.386 Z" bx:shape="crescent 238.522 134.453 5.414 69 0.766 1@7d662fba"/>
      <path style="fill: rgb(255, 250, 162);" transform="matrix(0.726271, 0.226134, -0.241712, 0.535262, -50.038021, 87.02919)" d="M 242.984 131.386 A 5.414 5.414 0 0 1 242.984 137.52 A 3.758 3.758 0 0 1 242.984 131.386 Z" bx:shape="crescent 238.522 134.453 5.414 69 0.766 1@7d662fba"/>
      <path style="fill: rgb(255, 250, 162);" transform="matrix(0.726271, 0.226134, -0.241712, 0.535262, -61.06749, 91.041512)" d="M 242.984 131.386 A 5.414 5.414 0 0 1 242.984 137.52 A 3.758 3.758 0 0 1 242.984 131.386 Z" bx:shape="crescent 238.522 134.453 5.414 69 0.766 1@7d662fba"/>
      <path style="fill: rgb(255, 250, 162);" transform="matrix(0.726271, 0.226134, -0.241712, 0.535262, -65.564438, 81.774254)" d="M 242.984 131.386 A 5.414 5.414 0 0 1 242.984 137.52 A 3.758 3.758 0 0 1 242.984 131.386 Z" bx:shape="crescent 238.522 134.453 5.414 69 0.766 1@7d662fba"/>
      <path style="fill: rgb(255, 250, 162);" transform="matrix(0.726271, 0.226134, -0.241712, 0.535262, -41.064941, 80.731941)" d="M 242.984 131.386 A 5.414 5.414 0 0 1 242.984 137.52 A 3.758 3.758 0 0 1 242.984 131.386 Z" bx:shape="crescent 238.522 134.453 5.414 69 0.766 1@7d662fba"/>
      <path style="fill: rgb(255, 250, 162);" transform="matrix(0.726271, 0.226134, -0.241712, 0.535262, -51.481621, 67.41993)" d="M 242.984 131.386 A 5.414 5.414 0 0 1 242.984 137.52 A 3.758 3.758 0 0 1 242.984 131.386 Z" bx:shape="crescent 238.522 134.453 5.414 69 0.766 1@7d662fba"/>
    </g>
  </g>
  <path style="fill: rgb(255, 250, 162);" transform="matrix(-0.684657, 0.212124, 0.227863, 0.5021, 335.842973, 48.318311)" d="M 242.984 131.386 A 5.414 5.414 0 0 1 242.984 137.52 A 3.758 3.758 0 0 1 242.984 131.386 Z" bx:shape="crescent 238.522 134.453 5.414 69 0.766 1@7d662fba"/>
</svg>