<svg height="512pt" viewBox="-33 0 512 512" width="512pt" xmlns="http://www.w3.org/2000/svg"><path d="m241.15625 176.632812c0-49.625-40.371094-89.996093-89.992188-89.996093-49.625 0-89.992187 40.371093-89.992187 89.996093v99.183594h36.113281v-99.183594c0-29.710937 24.167969-53.878906 53.878906-53.878906 29.707032 0 53.878907 24.167969 53.878907 53.878906zm0 0" fill="#29ce69"/><path d="m205.042969 176.632812h36.113281c0-41.996093-28.914062-77.363281-67.875-87.246093-1.714844 10.460937-3.898438 22.820312-6.519531 35.667969 22.128906 6.703124 38.28125 27.289062 38.28125 51.578124zm0 0" fill="#00c140"/><path d="m86.761719 189.960938 27.304687-7.820313c7.941406-2.273437 14.472656 6.488281 10.023438 13.449219l-20.121094 31.496094h-50.941406l-20.125-31.496094c-4.445313-6.960938 2.085937-15.722656 10.023437-13.449219l27.308594 7.820313c5.402344 1.542968 11.125 1.542968 16.527344 0zm0 0" fill="#00b762"/><path d="m241.15625 430.046875h-36.113281v-340.054687c0-49.621094 40.371093-89.992188 89.992187-89.992188 49.625 0 89.996094 40.371094 89.996094 89.992188v99.183593h-36.113281v-99.183593c0-29.707032-24.171875-53.878907-53.882813-53.878907-29.707031 0-53.878906 24.171875-53.878906 53.878907zm0 0" fill="#73da8c"/><path d="m359.4375 103.320312-27.304688-7.816406c-7.941406-2.273437-14.46875 6.484375-10.023437 13.445313l20.121094 31.496093h50.941406l20.125-31.496093c4.445313-6.960938-2.085937-15.71875-10.023437-13.445313l-27.308594 7.816406c-5.398438 1.546876-11.125 1.546876-16.527344 0zm0 0" fill="#00c172"/><path d="m446.199219 198.375c0 43.355469-35.144531 78.5-78.496094 78.5-43.355469 0-78.5-35.144531-78.5-78.5 0-43.351562 35.144531-78.496094 78.5-78.496094 43.351563 0 78.496094 35.144532 78.496094 78.496094zm0 0" fill="#ff8a98"/><path d="m156.996094 285.015625c0 43.351563-35.144532 78.496094-78.5 78.496094-43.351563 0-78.496094-35.144531-78.496094-78.496094 0-43.355469 35.144531-78.5 78.496094-78.5 43.355468 0 78.5 35.144531 78.5 78.5zm0 0" fill="#fd5c6f"/><path d="m345.097656 386.683594c-10.558594-.632813-20.59375 1.347656-29.523437 5.355468-8.097657 3.632813-17.628907 2.101563-23.777344-4.300781-15.390625-16.035156-40.421875-26.46875-68.695313-26.46875-28.273437 0-53.304687 10.433594-68.699218 26.46875-6.148438 6.402344-15.679688 7.9375-23.777344 4.300781-8.925781-4.007812-18.964844-5.988281-29.523438-5.355468-31.914062 1.921875-57.539062 28.128906-58.789062 60.078125-1.40625 35.785156 27.191406 65.238281 62.664062 65.238281h236.246094c35.476563 0 64.070313-29.453125 62.667969-65.238281-1.253906-31.949219-26.878906-58.15625-58.792969-60.078125zm0 0" fill="#e7896e"/><path d="m42.308594 446.761719c-1.402344 35.785156 27.195312 65.238281 62.667968 65.238281h111.460938c-16.007812-13.085938-42.835938-31.421875-81.375-46.277344-67.910156-26.171875-33.960938-79.039062-33.960938-79.039062-31.914062 1.921875-57.539062 28.128906-58.792968 60.078125zm0 0" fill="#dd6642"/><g fill="#454545"><path d="m416.539062 211.089844c-4.265624 0-7.726562-3.460938-7.726562-7.726563v-12.828125c0-4.265625 3.460938-7.726562 7.726562-7.726562 4.269532 0 7.726563 3.460937 7.726563 7.726562v12.828125c0 4.265625-3.457031 7.726563-7.726563 7.726563zm0 0"/><path d="m318.863281 211.089844c-4.265625 0-7.726562-3.460938-7.726562-7.726563v-12.828125c0-4.265625 3.460937-7.726562 7.726562-7.726562 4.269531 0 7.726563 3.460937 7.726563 7.726562v12.828125c0 4.265625-3.457032 7.726563-7.726563 7.726563zm0 0"/><path d="m372.980469 195.644531c-1.730469 2.539063-4.253907 2.84375-5.277344 2.84375s-3.589844-.277343-5.277344-2.84375c-2.34375-3.566406-7.136719-4.558593-10.699219-2.21875-3.566406 2.34375-4.558593 7.132813-2.21875 10.699219 4.039063 6.148438 10.839844 9.816406 18.195313 9.816406s14.152344-3.667968 18.191406-9.816406c2.34375-3.566406 1.351563-8.355469-2.214843-10.699219-1.308594-.855469-7.089844-3.082031-10.699219 2.21875zm0 0"/><path d="m127.335938 297.726562c-4.269532 0-7.726563-3.460937-7.726563-7.726562v-12.828125c0-4.265625 3.457031-7.726563 7.726563-7.726563 4.269531 0 7.726562 3.460938 7.726562 7.726563v12.828125c0 4.265625-3.460938 7.726562-7.726562 7.726562zm0 0"/><path d="m29.660156 297.726562c-4.265625 0-7.726562-3.460937-7.726562-7.726562v-12.828125c0-4.265625 3.460937-7.726563 7.726562-7.726563 4.269532 0 7.726563 3.460938 7.726563 7.726563v12.828125c0 4.265625-3.460938 7.726562-7.726563 7.726562zm0 0"/><path d="m95.964844 296.941406c0-11.816406-7.820313-21.394531-17.46875-21.394531-9.644532 0-17.464844 9.578125-17.464844 21.394531 0 11.8125 7.820312 21.390625 17.464844 21.390625 9.648437 0 17.46875-9.578125 17.46875-21.390625zm0 0"/></g><path d="m231.890625 430.046875c0 8.535156-6.917969 15.453125-15.453125 15.453125-8.53125 0-15.453125-6.917969-15.453125-15.453125s6.921875-15.453125 15.453125-15.453125c8.535156 0 15.453125 6.917969 15.453125 15.453125zm0 0" fill="#dd6642"/><path d="m282.136719 464.796875c0 8.53125-6.917969 15.449219-15.453125 15.449219s-15.453125-6.917969-15.453125-15.449219c0-8.535156 6.917969-15.453125 15.453125-15.453125s15.453125 6.917969 15.453125 15.453125zm0 0" fill="#dd6642"/><path d="m342.042969 445.5c0 8.53125-6.917969 15.453125-15.453125 15.453125-8.53125 0-15.453125-6.921875-15.453125-15.453125 0-8.535156 6.921875-15.453125 15.453125-15.453125 8.535156 0 15.453125 6.917969 15.453125 15.453125zm0 0" fill="#dd6642"/></svg>