<?xml version="1.0" encoding="utf-8"?>
<svg viewBox="0 0 500 500" xmlns="http://www.w3.org/2000/svg">
  <defs>
    <linearGradient gradientUnits="userSpaceOnUse" x1="272.977" y1="340.439" x2="272.977" y2="386.065" id="gradient-13" gradientTransform="matrix(1.652749, -0.596145, 0.334244, 0.830867, -311.503754, 140.161072)">
      <stop offset="0" style="stop-color: rgb(4, 165, 1);"/>
      <stop offset="1" style="stop-color: rgb(15, 134, 15);"/>
    </linearGradient>
  </defs>
  <g>
    <path d="M 232.576 374.299 C 229.579 356.247 215.54 350.238 199.534 350.238 C 197.648 350.238 203.556 353.62 201.984 355.167 C 200.97 356.164 196.379 354.153 195.476 353.892 C 191.7 352.812 182.147 351.253 177.563 352.96 C 172.879 354.707 172.281 359.977 177.278 359.977 C 178.582 359.977 174.669 359.977 173.364 359.977 C 170.764 359.977 168.164 359.977 165.567 359.977 C 158.46 359.977 150.328 362.937 143.305 361.163 C 140.521 360.458 137.452 360.473 134.889 359.358 C 133.636 358.811 130.335 357.067 130.807 358.43 C 132.777 364.122 142.052 369.986 147.284 371.62 C 148.445 371.981 155.028 373.665 155.293 374.635 C 155.504 375.406 142.969 379.057 143.717 380.258 C 146 383.93 161.486 376.605 163.804 380.258 C 165.205 382.469 157.436 387.514 159.614 388.85 C 164.353 391.753 177.748 388.102 183.002 384.907 C 183.873 384.372 193.936 377.596 194.113 378.297 C 194.377 379.35 192.697 381.97 193.185 382.873 C 193.842 384.092 201.573 381.634 201.887 382.623 C 202.776 385.422 190.388 400.487 193.104 403.187 C 194.485 404.557 199.106 401.91 200.713 401.63 C 212.993 399.461 218.644 388.389 225.948 380.732 C 227.959 378.626 228.55 386.577 231.052 385.501 C 232.425 384.909 235.75 382.321 235.33 381.631 C 235.161 381.359 232.475 376.034 232.578 374.191" style="stroke: rgb(15, 134, 15); fill: rgb(15, 134, 15);" transform="matrix(0.933875, 0.357599, -0.357599, 0.933875, 146.887031, -40.540476)"/>
    <path style="stroke: rgb(71, 38, 10); fill: rgb(71, 38, 10);" d="M 180.192 419.169 C 180.196 419.162 179.591 460.755 206.076 440.147 C 219.031 448.839 220.578 444.761 222.872 441.296 C 229.246 431.67 215.58 436.631 230.463 463.056 C 235.261 471.571 271.461 482.985 296.154 452.384 C 299.871 447.772 303.895 451.989 311.104 452.239 C 314.199 452.348 335.436 424.799 340.058 419.11 C 346.299 411.426 298.159 426.803 308.028 421.721 C 319.176 415.98 276.942 417.221 180.192 419.169 Z" transform="matrix(-1, 0, 0, -1, 520.809921, 889.306427)"/>
    <path d="M 361.964 310.448 C 358.622 320.87 346.748 324.339 333.538 324.339 C 331.982 324.339 337.02 322.386 335.798 321.493 C 335.009 320.918 331.125 322.078 330.367 322.229 C 327.198 322.853 319.24 323.752 315.54 322.766 C 311.757 321.759 311.518 318.717 315.641 318.717 C 316.718 318.717 313.488 318.717 312.411 318.717 C 310.267 318.717 308.12 318.717 305.977 318.717 C 300.113 318.717 293.544 317.007 287.663 318.032 C 285.331 318.439 282.8 318.43 280.631 319.074 C 279.571 319.389 276.763 320.396 277.218 319.609 C 279.117 316.324 287.055 312.938 291.451 311.994 C 292.426 311.786 297.94 310.815 298.205 310.255 C 298.417 309.809 288.247 307.702 288.924 307.008 C 290.984 304.888 303.411 309.117 305.5 307.008 C 306.762 305.731 300.594 302.819 302.455 302.048 C 306.506 300.372 317.385 302.479 321.565 304.324 C 322.26 304.633 330.237 308.545 330.417 308.14 C 330.685 307.533 329.426 306.02 329.871 305.499 C 330.472 304.795 336.734 306.214 337.04 305.643 C 337.91 304.027 328.412 295.331 330.783 293.771 C 331.988 292.98 335.675 294.508 336.987 294.67 C 347.017 295.922 351.146 302.314 356.806 306.735 C 358.363 307.95 359.232 303.36 361.246 303.981 C 362.35 304.323 364.969 305.818 364.589 306.215 C 364.438 306.372 361.965 309.446 361.96 310.51" style="stroke: rgb(15, 134, 15); fill: rgb(15, 134, 15);" transform="matrix(-0.292881, -0.956149, 0.956149, -0.292881, 119.487601, 706.251064)"/>
    <ellipse style="stroke-linecap: round; fill: rgb(206, 28, 31); stroke: rgb(170, 10, 10);" cx="323.407" cy="378.18" rx="10.475" ry="10.835" transform="matrix(0.046045, -0.998939, 0.999158, 0.041294, -48.020133, 559.909746)"/>
    <path d="M 405.604 258.177 C 401.009 276.44 386.588 282.52 370.766 282.52 C 368.902 282.52 375.048 279.098 373.634 277.533 C 372.722 276.524 368.002 278.558 367.086 278.823 C 363.256 279.915 353.672 281.492 349.295 279.765 C 344.824 277.999 344.709 272.667 349.648 272.667 C 350.938 272.667 347.069 272.667 345.78 272.667 C 343.21 272.667 340.639 272.667 338.073 272.667 C 331.048 272.667 323.277 269.672 316.175 271.467 C 313.36 272.18 310.327 272.165 307.692 273.293 C 306.405 273.846 302.984 275.611 303.574 274.232 C 306.036 268.473 315.735 262.541 321.054 260.887 C 322.234 260.522 328.894 258.819 329.244 257.837 C 329.522 257.057 317.462 253.364 318.31 252.149 C 320.9 248.433 335.544 255.844 338.165 252.149 C 339.751 249.911 332.528 244.808 334.801 243.457 C 339.748 240.519 352.659 244.213 357.562 247.445 C 358.375 247.986 367.709 254.842 367.947 254.132 C 368.303 253.067 366.88 250.417 367.443 249.504 C 368.204 248.27 375.623 250.756 376.022 249.756 C 377.155 246.925 366.274 231.684 369.202 228.952 C 370.691 227.566 375.019 230.243 376.582 230.527 C 388.525 232.722 393.11 243.923 399.637 251.669 C 401.433 253.799 402.736 245.756 405.112 246.845 C 406.415 247.444 409.467 250.062 408.99 250.76 C 408.799 251.034 405.662 256.422 405.597 258.286" style="stroke: rgb(15, 134, 15); fill: rgb(15, 134, 15);" transform="matrix(-0.81568, -0.578503, 0.578503, -0.81568, 499.048529, 670.080617)"/>
    <ellipse style="stroke-linecap: round; fill: rgb(206, 28, 31); stroke: rgb(170, 10, 10);" cx="318.316" cy="383.963" rx="10.475" ry="10.835" transform="matrix(0.046045, -0.998939, 0.999158, 0.041294, -43.738381, 563.525406)"/>
    <ellipse style="stroke-linecap: round; fill: rgb(206, 28, 31); stroke: rgb(170, 10, 10);" cx="313.805" cy="389.597" rx="8.756" ry="9.205" transform="matrix(0.046045, -0.998939, 0.999158, 0.041294, -39.553058, 566.745374)"/>
    <path d="M 388.644 201.809 C 384.954 224.561 374.856 232.135 363.965 232.135 C 362.682 232.135 367.012 227.871 366.083 225.922 C 365.484 224.665 362.177 227.2 361.54 227.53 C 358.871 228.891 352.23 230.856 349.267 228.704 C 346.241 226.503 346.315 219.86 349.714 219.86 C 350.602 219.86 347.939 219.86 347.051 219.86 C 345.283 219.86 343.514 219.86 341.747 219.86 C 336.912 219.86 331.65 216.129 326.71 218.366 C 324.753 219.255 322.664 219.236 320.82 220.641 C 319.918 221.329 317.511 223.528 317.958 221.809 C 319.817 214.636 326.664 207.245 330.374 205.186 C 331.197 204.729 335.828 202.609 336.097 201.385 C 336.312 200.414 328.118 195.813 328.737 194.299 C 330.626 189.67 340.492 198.901 342.402 194.299 C 343.558 191.511 338.734 185.154 340.337 183.469 C 343.825 179.81 352.606 184.412 355.888 188.439 C 356.432 189.113 362.658 197.653 362.842 196.769 C 363.118 195.442 362.215 192.141 362.63 191.003 C 363.188 189.465 368.223 192.564 368.527 191.317 C 369.387 187.79 362.337 168.803 364.432 165.399 C 365.496 163.672 368.399 167.008 369.467 167.362 C 377.622 170.096 380.454 184.05 384.724 193.701 C 385.898 196.354 387.027 186.333 388.631 187.689 C 389.511 188.437 391.536 191.698 391.188 192.567 C 391.047 192.911 388.734 199.623 388.635 201.945" style="stroke: rgb(15, 134, 15); fill: rgb(15, 134, 15);" transform="matrix(-0.612213, -0.790693, 0.790693, -0.612213, 414.666386, 600.409646)"/>
    <path d="M 328.228 131.223 C 325.584 149.834 312.056 156.029 296.53 156.029 C 294.701 156.029 300.382 152.542 298.834 150.947 C 297.836 149.92 293.413 151.993 292.541 152.262 C 288.894 153.375 279.65 154.982 275.179 153.222 C 270.61 151.422 269.953 145.989 274.8 145.989 C 276.065 145.989 272.269 145.989 271.004 145.989 C 268.482 145.989 265.959 145.989 263.441 145.989 C 256.547 145.989 248.615 142.937 241.83 144.766 C 239.139 145.493 236.162 145.478 233.692 146.627 C 232.485 147.191 229.308 148.989 229.746 147.584 C 231.574 141.716 240.486 135.67 245.536 133.985 C 246.657 133.613 253.018 131.877 253.261 130.877 C 253.455 130.082 241.243 126.319 241.951 125.081 C 244.112 121.294 259.24 128.846 261.435 125.081 C 262.762 122.8 255.153 117.6 257.245 116.223 C 261.8 113.23 274.847 116.993 279.989 120.287 C 280.842 120.839 290.702 127.825 290.863 127.101 C 291.104 126.016 289.436 123.315 289.896 122.385 C 290.516 121.127 298.051 123.661 298.34 122.642 C 299.162 119.757 286.927 104.226 289.522 101.441 C 290.841 100.029 295.362 102.758 296.925 103.047 C 308.869 105.283 314.511 116.698 321.708 124.592 C 323.687 126.762 324.144 118.566 326.587 119.675 C 327.927 120.286 331.19 122.953 330.793 123.665 C 330.633 123.945 328.105 129.435 328.232 131.335" style="stroke: rgb(15, 134, 15); fill: rgb(15, 134, 15);" transform="matrix(-0.564859, 0.825188, -0.825188, -0.564859, 544.640259, -30.134869)"/>
    <g transform="matrix(1.768597, 0, 0, 1.674696, -209.200958, -306.574341)" style="">
      <path style="fill: rgb(15, 134, 15); stroke: rgb(4, 165, 1); stroke-miterlimit: 3; stroke-linecap: round; stroke-width: 7px;" d="M 275.879 461.092 C 266.916 467.241 298.824 284.391 311.367 275.786"/>
      <path style="fill: rgb(15, 134, 15); stroke: rgb(4, 165, 1); stroke-miterlimit: 3; stroke-linecap: round; stroke-width: 10px;" d="M 271.218 457.5 C 261.513 458.726 250.923 256.72 258.809 255.724"/>
      <path style="fill: rgb(15, 134, 15); stroke: rgb(4, 165, 1); stroke-miterlimit: 3; stroke-linecap: round; stroke-width: 7px;" d="M 257.744 460.564 C 265.664 454.629 227.364 289.802 216.9 304.031"/>
    </g>
    <path style="fill: rgb(92, 53, 19); stroke: rgb(92, 53, 19);" d="M 163.562 436.376 L 186.655 467.357 C 204.64 476.755 219.641 464.051 222.825 460.306 C 231.675 449.896 212.701 455.26 233.364 483.837 C 240.021 493.045 242.592 499.926 276.532 475.395 C 282.394 471.158 296.508 463.143 306.52 463.414 C 310.818 463.533 311.451 462.734 317.869 456.582 C 326.535 448.273 327.354 444.633 341.057 439.138 C 356.534 432.928 283.949 444.73 163.562 436.376 Z" transform="matrix(-1, 0, 0, -1, 506.687241, 928.65094)"/>
    <path d="M 199.949 180.736 C 193.303 162.412 176.253 156.316 158.038 156.316 C 155.892 156.316 163.219 159.749 161.71 161.317 C 160.735 162.332 155.151 160.291 154.075 160.027 C 149.584 158.927 138.437 157.348 133.525 159.08 C 128.506 160.851 128.77 166.198 134.454 166.198 C 135.938 166.198 131.485 166.198 130.002 166.198 C 127.043 166.198 124.084 166.198 121.127 166.198 C 113.041 166.198 104.316 169.205 96.008 167.403 C 92.711 166.69 89.223 166.703 86.106 165.571 C 84.583 165.018 80.514 163.248 81.296 164.631 C 84.556 170.407 96.164 176.356 102.409 178.017 C 103.796 178.385 111.589 180.092 112.064 181.077 C 112.444 181.858 98.831 185.563 99.898 186.783 C 103.156 190.51 119.465 183.076 122.757 186.783 C 124.746 189.025 116.81 194.147 119.528 195.503 C 125.442 198.45 140.032 194.745 145.436 191.499 C 146.333 190.96 156.567 184.08 156.895 184.792 C 157.387 185.861 155.944 188.52 156.659 189.436 C 157.626 190.674 165.983 188.179 166.519 189.184 C 168.032 192.024 156.633 207.31 160.208 210.051 C 162.024 211.444 166.81 208.757 168.588 208.469 C 182.175 206.271 186.62 195.036 193.561 187.265 C 195.47 185.126 197.565 193.197 200.223 192.104 C 201.678 191.505 204.996 188.877 204.395 188.177 C 204.157 187.9 200.145 182.497 199.931 180.627" style="fill: rgb(4, 165, 1); stroke: rgb(4, 165, 1);" transform="matrix(0.84052, 0.54178, -0.54178, 0.84052, 122.131843, -48.137774)"/>
    <path d="M 320.797 76.939 C 314.204 95.787 297.584 102.058 279.876 102.058 C 277.789 102.058 284.938 98.527 283.481 96.913 C 282.541 95.87 277.097 97.97 276.05 98.241 C 271.676 99.373 260.827 100.996 256.065 99.215 C 251.197 97.393 251.493 91.894 257.019 91.894 C 258.461 91.894 254.132 91.894 252.69 91.894 C 249.814 91.894 246.937 91.894 244.062 91.894 C 236.201 91.894 227.741 88.8 219.651 90.654 C 216.441 91.387 213.05 91.373 210.011 92.538 C 208.526 93.107 204.558 94.927 205.328 93.505 C 208.539 87.564 219.866 81.444 225.95 79.736 C 227.301 79.358 234.889 77.601 235.358 76.589 C 235.733 75.785 222.525 71.974 223.571 70.72 C 226.766 66.886 242.568 74.533 245.795 70.72 C 247.745 68.413 240.066 63.144 242.718 61.75 C 248.489 58.718 262.647 62.53 267.877 65.868 C 268.745 66.423 278.645 73.499 278.969 72.767 C 279.455 71.667 278.071 68.933 278.773 67.991 C 279.722 66.717 287.829 69.283 288.357 68.25 C 289.848 65.328 278.876 49.605 282.371 46.785 C 284.147 45.352 288.781 48.116 290.507 48.412 C 303.701 50.674 307.94 62.23 314.633 70.224 C 316.474 72.424 318.568 64.122 321.144 65.246 C 322.554 65.863 325.762 68.565 325.172 69.285 C 324.939 69.571 321 75.128 320.778 77.051" style="fill: rgb(4, 165, 1); stroke: rgb(4, 165, 1);" transform="matrix(-0.431249, 0.902233, -0.902233, -0.431249, 446.580568, -133.08275)"/>
    <path d="M 267.686 99.095 C 255.559 112.544 240.563 117.019 227.108 117.019 C 225.523 117.019 232.288 114.499 231.791 113.347 C 231.47 112.604 226.54 114.102 225.643 114.295 C 221.893 115.103 213.037 116.261 210.089 114.991 C 207.08 113.691 209.383 109.765 213.58 109.765 C 214.676 109.765 211.386 109.765 210.292 109.765 C 208.106 109.765 205.921 109.765 203.735 109.765 C 197.763 109.765 192.502 107.559 185.658 108.882 C 182.939 109.405 180.368 109.395 177.62 110.226 C 176.275 110.633 172.575 111.931 173.697 110.916 C 178.381 106.676 189.299 102.309 194.565 101.09 C 195.733 100.82 202.164 99.566 202.901 98.844 C 203.49 98.271 194.895 95.551 196.161 94.655 C 200.038 91.92 209.157 97.377 213.048 94.655 C 215.402 93.009 211.555 89.25 214.097 88.256 C 219.627 86.09 228.945 88.811 231.658 91.193 C 232.107 91.59 236.958 96.638 237.479 96.116 C 238.263 95.331 238.244 93.381 239.133 92.709 C 240.338 91.799 245.527 93.631 246.317 92.893 C 248.555 90.808 246.156 79.588 249.877 77.575 C 251.768 76.553 254.244 78.525 255.444 78.736 C 264.614 80.35 263.471 88.597 265.536 94.302 C 266.106 95.872 270.833 89.947 272.366 90.748 C 273.203 91.189 274.618 93.12 273.9 93.632 C 273.615 93.836 268.523 97.801 267.628 99.174" style="fill: rgb(4, 165, 1); stroke: rgb(4, 165, 1);" transform="matrix(0.364135, 0.931346, -0.931346, 0.364135, 232.782984, -146.653372)"/>
    <path d="M 450.885 188.051 C 442.501 206.235 424.759 212.284 406.403 212.284 C 404.24 212.284 411.94 208.878 410.564 207.321 C 409.674 206.314 403.859 208.34 402.751 208.602 C 398.124 209.694 386.745 211.26 381.955 209.542 C 377.06 207.784 377.819 202.478 383.547 202.478 C 385.042 202.478 380.555 202.478 379.06 202.478 C 376.078 202.478 373.096 202.478 370.117 202.478 C 361.968 202.478 353.453 199.494 344.915 201.282 C 341.527 201.99 338.013 201.977 334.768 203.1 C 333.182 203.649 328.919 205.405 329.834 204.033 C 333.651 198.301 345.896 192.397 352.342 190.75 C 353.773 190.385 361.783 188.69 362.353 187.713 C 362.807 186.938 349.43 183.261 350.618 182.051 C 354.244 178.352 369.995 185.73 373.653 182.051 C 375.864 179.825 368.338 174.743 371.202 173.398 C 377.433 170.473 391.795 174.15 396.941 177.37 C 397.796 177.906 407.476 184.733 407.872 184.026 C 408.466 182.965 407.256 180.327 408.061 179.418 C 409.149 178.19 417.342 180.665 417.974 179.668 C 419.76 176.85 409.68 161.681 413.535 158.96 C 415.493 157.578 420.069 160.244 421.834 160.53 C 435.324 162.712 438.768 173.861 445.048 181.573 C 446.775 183.695 449.629 175.686 452.207 176.77 C 453.618 177.365 456.72 179.972 456.05 180.667 C 455.784 180.942 451.244 186.304 450.856 188.159" style="fill: rgb(4, 165, 1); stroke: rgb(4, 165, 1);" transform="matrix(-0.918269, -0.395958, 0.395958, -0.918269, 680.315619, 511.275811)"/>
    <ellipse style="stroke-linecap: round; fill: rgb(206, 28, 31); stroke: rgb(170, 10, 10);" cx="159.313" cy="277.108" rx="19.287" ry="16.705"/>
    <ellipse style="stroke-linecap: round; fill: rgb(206, 28, 31); stroke: rgb(170, 10, 10);" cx="143.607" cy="292.877" rx="19.287" ry="16.705"/>
    <ellipse style="stroke-linecap: round; fill: rgb(206, 28, 31); stroke: rgb(170, 10, 10);" cx="129.701" cy="308.238" rx="16.124" ry="14.193"/>
    <ellipse style="stroke-linecap: round; fill: rgb(206, 28, 31); stroke: rgb(170, 10, 10);" cx="165.43" cy="286.284" rx="19.287" ry="16.705"/>
    <ellipse style="stroke-linecap: round; fill: rgb(206, 28, 31); stroke: rgb(170, 10, 10);" cx="149.725" cy="302.053" rx="19.287" ry="16.705"/>
    <ellipse style="stroke-linecap: round; fill: rgb(206, 28, 31); stroke: rgb(170, 10, 10);" cx="135.818" cy="317.413" rx="16.124" ry="14.193"/>
    <path d="M 193.731 260.899 C 185.762 260.899 175.382 257.719 167.31 259.744 C 150.842 263.877 143.556 280.247 134.191 291.529 C 128.899 297.904 121.92 307.052 121.92 315.271 C 121.92 316.713 121.308 311.991 122.379 310.966 C 123.968 309.445 123.369 305.516 124.78 304.061 C 126.761 302.021 130.046 307.513 130.123 307.465 C 130.699 307.105 127.379 302.274 126.957 301.548 C 125.087 298.332 128.976 293.087 132.138 291.574 C 135.449 289.99 136.167 288.977 140.324 288.977 C 140.833 288.977 143.65 290.558 143.658 290.543 C 144.617 288.782 141.228 287.295 139.749 285.894 C 137.476 283.742 149.153 270.219 151.385 269.151 C 158.667 265.668 161.315 264.828 161.315 272.559 C 161.315 274.262 161.786 268.711 160.514 267.507 C 158.955 266.03 155.953 266.548 153.171 266.548" style="stroke-width: 3px; fill: rgb(110, 40, 46); stroke: rgb(15, 134, 15);"/>
    <g transform="matrix(1.768597, 0, 0, 1.674696, -229.89505, -290.79184)" style="">
      <ellipse style="stroke-linecap: round; fill: rgb(206, 28, 31); stroke: rgb(170, 10, 10); stroke-width: 0.58099px;" cx="-332.574" cy="389.248" rx="10.905" ry="9.975" transform="matrix(-0.874351, -0.485294, -0.485294, 0.874351, 180.885177, -163.303163)"/>
      <ellipse style="stroke-linecap: round; fill: rgb(206, 28, 31); stroke: rgb(170, 10, 10); stroke-width: 0.58099px;" cx="-341.454" cy="398.664" rx="10.905" ry="9.975" transform="matrix(-0.874351, -0.485294, -0.485294, 0.874351, 180.885177, -163.303163)"/>
      <ellipse style="stroke-linecap: round; fill: rgb(206, 28, 31); stroke: rgb(170, 10, 10); stroke-width: 0.58099px;" cx="-349.317" cy="407.836" rx="9.117" ry="8.475" transform="matrix(-0.874351, -0.485294, -0.485294, 0.874351, 180.885177, -163.303163)"/>
    </g>
    <g transform="matrix(1.511333, 0, 0, 1.459956, -182.260101, -218.356842)" style="">
      <ellipse style="stroke-linecap: round; fill: rgb(206, 28, 31); stroke: rgb(170, 10, 10); stroke-width: 0.67318px;" cx="-332.574" cy="389.248" rx="10.905" ry="9.975" transform="matrix(-0.874351, -0.485294, -0.485294, 0.874351, 180.885177, -163.303163)"/>
      <ellipse style="stroke-linecap: round; fill: rgb(206, 28, 31); stroke: rgb(170, 10, 10); stroke-width: 0.67318px;" cx="-341.454" cy="398.664" rx="10.905" ry="9.975" transform="matrix(-0.874351, -0.485294, -0.485294, 0.874351, 180.885177, -163.303163)"/>
      <ellipse style="stroke-linecap: round; fill: rgb(206, 28, 31); stroke: rgb(170, 10, 10); stroke-width: 0.67318px;" cx="-349.317" cy="407.836" rx="9.117" ry="8.475" transform="matrix(-0.874351, -0.485294, -0.485294, 0.874351, 180.885177, -163.303163)"/>
    </g>
    <path d="M 248.334 234.893 C 248.334 247.805 254.814 256.934 260.129 266.065 C 261.001 267.563 254.564 272.275 253.906 272.478 C 252.499 272.913 255.531 269.966 256.852 269.335 C 259.413 268.11 263.46 269.336 264.984 270.422 C 266.775 271.699 262.425 266.354 260.231 265.913 C 259.776 265.821 263.658 278.528 264.091 279.347 C 266.23 283.398 262.141 294.288 256.373 289.919 C 255.561 289.304 261.355 288.374 262.547 288.374 C 267.69 288.374 270.743 288.202 273.274 291.078 C 274.954 292.988 267.44 288.571 265.455 290.197 C 262.787 292.382 267.696 304.025 266.293 305.472 C 264.909 306.9 260.035 304.064 258.621 305.169 C 257.918 305.718 267.639 305.355 268.687 305.851 C 270.238 306.585 272.602 311.302 273.608 311.302" style="stroke: rgb(4, 165, 1); fill: url(#gradient-13); stroke-width: 4px;"/>
    <path d="M 307.016 264.048 C 304.12 272.223 297.078 274.942 289.615 274.942 C 288.735 274.942 291.77 273.41 291.167 272.712 C 290.776 272.258 288.47 273.168 288.027 273.288 C 286.175 273.778 281.595 274.482 279.598 273.709 C 277.559 272.92 277.717 270.535 280.047 270.535 C 280.655 270.535 278.83 270.535 278.221 270.535 C 277.01 270.535 275.797 270.535 274.586 270.535 C 271.274 270.535 267.727 269.193 264.306 269.995 C 262.949 270.315 261.521 270.308 260.232 270.814 C 259.604 271.06 257.919 271.85 258.252 271.233 C 259.643 268.657 264.455 266.001 267.03 265.26 C 267.6 265.097 270.81 264.335 271.013 263.896 C 271.177 263.547 265.634 261.894 266.084 261.35 C 267.454 259.687 274.064 263.005 275.449 261.35 C 276.284 260.349 273.082 258.065 274.207 257.46 C 276.658 256.145 282.602 257.797 284.785 259.245 C 285.147 259.487 289.276 262.556 289.416 262.239 C 289.628 261.762 289.061 260.576 289.363 260.166 C 289.77 259.615 293.172 260.727 293.4 260.278 C 294.047 259.012 289.522 252.192 291.012 250.97 C 291.769 250.348 293.704 251.547 294.43 251.675 C 299.976 252.656 301.69 257.668 304.461 261.135 C 305.222 262.089 306.157 258.488 307.236 258.977 C 307.826 259.244 309.161 260.416 308.908 260.729 C 308.807 260.851 307.114 263.262 307.008 264.096" style="fill: rgb(4, 165, 1); stroke: rgb(4, 165, 1);" transform="matrix(-0.973685, 0.227898, -0.227898, -0.973685, 619.593031, 454.190779)"/>
    <path d="M 156.404 264.779 C 152.655 254.901 144.285 251.615 135.543 251.615 C 134.512 251.615 138.134 253.466 137.458 254.309 C 137.019 254.857 134.277 253.758 133.754 253.614 C 131.562 253.021 126.165 252.171 123.86 253.105 C 121.506 254.058 121.795 256.94 124.525 256.94 C 125.237 256.94 123.098 256.94 122.386 256.94 C 120.966 256.94 119.545 256.94 118.126 256.94 C 114.246 256.94 110.15 258.562 106.105 257.592 C 104.503 257.207 102.829 257.215 101.298 256.603 C 100.551 256.305 98.542 255.352 98.959 256.096 C 100.701 259.209 106.454 262.418 109.504 263.313 C 110.18 263.51 113.973 264.43 114.23 264.962 C 114.439 265.384 108.015 267.38 108.567 268.038 C 110.245 270.047 117.843 266.039 119.538 268.038 C 120.56 269.248 116.908 272.008 118.254 272.738 C 121.182 274.327 128.074 272.329 130.569 270.58 C 130.983 270.289 135.684 266.58 135.864 266.964 C 136.132 267.54 135.521 268.973 135.893 269.469 C 136.393 270.134 140.33 268.79 140.617 269.332 C 141.43 270.863 136.426 279.103 138.226 280.58 C 139.14 281.331 141.354 279.882 142.199 279.728 C 148.654 278.543 150.442 272.487 153.537 268.298 C 154.388 267.145 155.64 271.497 156.883 270.905 C 157.563 270.583 159.076 269.166 158.766 268.789 C 158.642 268.64 156.553 265.727 156.393 264.719" style="fill: rgb(4, 165, 1); stroke: rgb(4, 165, 1);" transform="matrix(0.994963, -0.10024, 0.10024, 0.994963, -26.035374, 14.257227)"/>
    <path d="M 252.831 236.719 C 249.455 226.817 241.227 223.523 232.506 223.523 C 231.477 223.523 235.022 225.379 234.317 226.224 C 233.858 226.773 231.164 225.672 230.647 225.527 C 228.483 224.932 223.13 224.081 220.796 225.016 C 218.412 225.972 218.595 228.861 221.317 228.861 C 222.028 228.861 219.894 228.861 219.184 228.861 C 217.768 228.861 216.35 228.861 214.934 228.861 C 211.064 228.861 206.917 230.487 202.918 229.515 C 201.334 229.128 199.664 229.137 198.159 228.524 C 197.424 228.225 195.456 227.269 195.845 228.015 C 197.467 231.136 203.088 234.352 206.098 235.249 C 206.765 235.447 210.515 236.37 210.751 236.902 C 210.943 237.325 204.462 239.326 204.988 239.986 C 206.587 242 214.316 237.982 215.933 239.986 C 216.907 241.199 213.162 243.965 214.478 244.698 C 217.34 246.29 224.289 244.288 226.843 242.534 C 227.267 242.242 232.094 238.525 232.259 238.909 C 232.505 239.487 231.843 240.923 232.195 241.42 C 232.67 242.087 236.647 240.74 236.914 241.283 C 237.668 242.818 232.371 251.077 234.112 252.559 C 234.996 253.311 237.258 251.858 238.107 251.704 C 244.591 250.516 246.598 244.446 249.84 240.246 C 250.732 239.091 251.82 243.453 253.082 242.86 C 253.773 242.537 255.334 241.116 255.039 240.738 C 254.921 240.589 252.944 237.67 252.822 236.658" style="fill: rgb(4, 165, 1); stroke: rgb(4, 165, 1);" transform="matrix(0.973685, 0.227898, -0.227898, 0.973685, 60.205853, -45.109347)"/>
    <path d="M 241.464 404.06 C 238.089 394.158 229.86 390.864 221.139 390.864 C 220.111 390.864 223.655 392.72 222.95 393.565 C 222.491 394.114 219.797 393.012 219.28 392.868 C 217.116 392.273 211.763 391.422 209.429 392.357 C 207.046 393.313 207.228 396.202 209.95 396.202 C 210.661 396.202 208.527 396.202 207.817 396.202 C 206.401 396.202 204.983 396.202 203.567 396.202 C 199.697 396.202 195.55 397.828 191.551 396.855 C 189.967 396.469 188.297 396.477 186.792 395.864 C 186.058 395.565 184.089 394.61 184.478 395.355 C 186.1 398.476 191.721 401.693 194.731 402.59 C 195.398 402.788 199.148 403.71 199.385 404.243 C 199.577 404.666 193.095 406.667 193.621 407.327 C 195.221 409.341 202.949 405.323 204.566 407.327 C 205.541 408.539 201.795 411.306 203.112 412.038 C 205.974 413.631 212.923 411.628 215.476 409.875 C 215.9 409.582 220.727 405.865 220.892 406.25 C 221.138 406.828 220.476 408.264 220.828 408.761 C 221.303 409.428 225.28 408.081 225.547 408.623 C 226.301 410.159 221.004 418.418 222.746 419.899 C 223.629 420.652 225.892 419.199 226.74 419.044 C 233.224 417.857 235.232 411.786 238.474 407.587 C 239.365 406.431 240.453 410.794 241.715 410.201 C 242.406 409.878 243.967 408.457 243.672 408.079 C 243.554 407.93 241.577 405.01 241.455 403.999" style="fill: rgb(4, 165, 1); stroke: rgb(4, 165, 1);" transform="matrix(0.973685, 0.227898, -0.227898, 0.973685, 98.043353, -38.115261)"/>
    <ellipse style="stroke-linecap: round; fill: rgb(206, 28, 31); stroke: rgb(170, 10, 10);" cx="323.407" cy="378.18" rx="10.475" ry="10.835" transform="matrix(0.046045, -0.998939, 0.999158, 0.041294, -52.330436, 575.787676)"/>
    <ellipse style="stroke-linecap: round; fill: rgb(206, 28, 31); stroke: rgb(170, 10, 10);" cx="318.316" cy="383.963" rx="10.475" ry="10.835" transform="matrix(0.046045, -0.998939, 0.999158, 0.041294, -48.048688, 579.403335)"/>
    <ellipse style="stroke-linecap: round; fill: rgb(206, 28, 31); stroke: rgb(170, 10, 10);" cx="313.805" cy="389.597" rx="8.756" ry="9.205" transform="matrix(0.046045, -0.998939, 0.999158, 0.041294, -43.86336, 582.623304)"/>
    <path d="M 317.405 217.11 C 317.405 230.236 319.435 244.029 331.663 249.959 C 334.843 251.501 336.847 256.075 339.643 256.075 C 340.858 256.075 339.001 253.777 338.458 252.724 C 337.97 251.776 339.613 242.575 335.835 245.647 C 334.521 246.715 337.095 253.95 337.553 254.936 C 338.283 256.515 334.39 258.565 335.651 259.786 C 338.226 262.286 344.144 252.813 348.26 258.344 C 348.926 259.238 341.523 258.498 340.916 258.341 C 337.836 257.544 339.797 258.84 338.334 258.84 C 337.096 258.84 340.807 258.84 342.043 258.84 C 343.794 258.84 347.131 260.19 348.26 261.288 C 349.151 262.151 346.159 270.626 349.294 269.091 C 351.604 267.959 350.891 263.742 352.618 261.97 C 353.604 260.96 357.117 263.035 356.084 264.023 C 354.413 265.621 350.173 263.229 348.382 264.358 C 348.339 264.386 352.338 269.442 352.655 269.925 C 355.021 273.559 358.786 276.707 358.786 281.081" style="fill: none; stroke: rgb(4, 165, 1); stroke-width: 4px; stroke-linecap: round;"/>
  </g>
  <path style="fill: rgba(20, 130, 5, 0); stroke: rgb(20, 130, 5); stroke-width: 2px;" d="M 331.636 432.97"/>
  <path style="fill: rgb(216, 46, 54); stroke-linecap: round; stroke: rgb(118, 6, 25);" d="M 141.095 370.204"/>
</svg>